<svg width="1204" height="725" viewBox="0 0 1204 725" fill="none" xmlns="http://www.w3.org/2000/svg">
<g filter="url(#filter0_i)">
<path d="M0.00431633 -60V287L0.00390625 642.5C0.00390625 642.5 6.00432 674 13.0043 684.5C20.0043 695 39.671 724.5 91.0043 724.5C142.338 724.5 185.004 684.5 185.004 684.5C185.004 684.5 219.004 650 232.504 636.5C246.004 623 252.504 617 269.504 598C286.504 579 294.504 572.5 302.504 563.5C310.504 554.5 341.004 527.5 354.504 517C368.004 506.5 421.504 478.5 453.002 470.5C484.5 462.5 504.502 460.5 527.002 461.5C549.502 462.5 578.504 475 597.004 483C615.504 491 657.504 515.5 683.004 537C708.504 558.5 736.504 579.5 753.504 590C770.504 600.5 818.004 626 837.004 633C856.004 640 885.504 656 919.002 656C952.5 656 987.004 654 1028.5 636C1070 618 1119.5 566.5 1136 514C1152.5 461.5 1142 351 1126 314.5C1110 278 1051 205.5 1042 191C1033 176.5 1016.16 126.094 1020.5 103C1028.5 60.5 1070.5 26.5 1082.5 16C1100 0.6875 1150.69 -29 1161 -35.5C1171.32 -42 1203 -60 1203 -60C1203 -60 1171.57 -60 1171.32 -60H0.00431633Z" fill="url(#paint0_radial)"/>
</g>
<g filter="url(#filter1_i)">
<path fill-rule="evenodd" clip-rule="evenodd" d="M632 501.682C618.039 493.343 605.21 486.548 597.004 483C578.504 475 549.502 462.5 527.002 461.5C504.502 460.5 484.5 462.5 453.002 470.5C421.504 478.5 368.004 506.5 354.504 517C341.004 527.5 310.504 554.5 302.504 563.5C299.193 567.226 295.881 570.523 291.931 574.456C286.339 580.023 279.467 586.865 269.504 598C255.497 613.656 248.618 620.485 239.078 629.956C237.04 631.98 234.881 634.124 232.504 636.5C219.004 650 185.004 684.5 185.004 684.5C185.004 684.5 142.338 724.5 91.0043 724.5C39.671 724.5 20.0043 695 13.0043 684.5C6.00432 674 0.00390625 642.5 0.00390625 642.5L0.00431633 287V-60H632V501.682Z" fill="url(#paint1_radial)"/>
</g>
<g filter="url(#filter2_i)">
<path d="M0.00390625 -60V287V642.5C1.51987 649 12.8619 667.597 25.0039 677.5C37.1459 687.403 66.0874 695.744 96.5039 693.5C126.92 691.256 167.725 661.299 190.004 641C212.283 620.701 276.45 565.856 282.504 560.5C288.557 555.144 293.015 552.272 301.004 546.5C308.993 540.728 314.004 537.5 318.504 534C323.004 530.5 351.504 514.5 359.504 511C367.504 507.5 387.004 496 437.504 483.5C488.004 471 526.504 473 538.004 475C549.504 477 580.004 482.304 602.504 492C625.004 501.696 657.504 515.5 683.004 537C708.504 558.5 736.504 579.5 753.504 590C770.504 600.5 823.004 620.5 838.004 625.5C853.004 630.5 883.504 636.5 912.004 633C940.504 629.5 975.004 617.5 1007 600C1039 582.5 1032.5 588.214 1086 550C1139.5 511.786 1170.5 427 1149 363C1127.5 299 1064.5 225 1042 191C1019.5 157 1016.16 126.094 1020.5 103C1028.5 60.5 1068.9 24.3113 1082.5 16C1092.69 9.78091 1171 -58.5 1171.5 -59L1172.5 -60C1172.5 -60 1170.76 -60 1170.5 -60H0.00390625Z" fill="url(#paint2_radial)"/>
</g>
<g filter="url(#filter3_d)">
<path d="M0.00466702 -60V287C0.00466702 287 -0.00583377 590.32 0.00466702 594.954C0.0151678 599.588 2.83674 604.099 6.70543 606.65C22.1649 616.847 67.4433 634.195 100.505 632.5C139.505 630.5 160.012 625.001 199.509 605.001C223.291 592.957 253.856 568.586 276.333 550.664C286.176 542.815 294.469 536.202 299.961 532.404C301.6 531.271 303.293 530.193 304.988 529.114C307.206 527.702 309.426 526.288 311.531 524.746C350.957 495.864 424.636 469.96 458.005 465.5C493.005 460.822 497.005 461 519.505 462C542.005 463 578.505 475 597.005 483C615.505 491 657.505 515.5 683.005 537C708.505 558.5 736.505 579.5 753.505 590C770.505 600.5 823.005 620.5 838.005 625.5C853.005 630.5 883.505 636.5 912.005 633C940.505 629.5 975.005 617.5 1007 600C1039 582.5 1084 530 1104 493C1124 456 1132.5 401 1127 348.5C1121.5 296 1051.5 209.5 1042 191C1032.5 172.5 1016.16 126.094 1020.5 103C1028.5 60.5 1070.5 26.5 1082.5 16C1100 0.6875 1171.5 -59.5 1171.5 -59.5L1172 -60C1172 -60 1171.57 -60 1171.32 -60H0.00466702Z" fill="url(#paint3_radial)"/>
</g>
<g filter="url(#filter4_d)">
<path d="M0.00821486 -60V237.98C0.00821486 237.98 -0.00147951 498.451 0.00821486 502.431C0.0179092 506.41 2.62279 510.284 6.19439 512.475C20.4667 521.231 62.2678 536.129 92.7903 534.673C128.795 532.955 147.728 528.234 184.191 511.058C206.147 500.716 234.365 479.788 255.115 464.397C264.203 457.657 271.859 451.979 276.93 448.717C278.443 447.744 280.006 446.818 281.57 445.892C283.618 444.679 285.668 443.465 287.611 442.141C324.009 417.339 392.029 395.094 422.836 391.264C455.148 387.247 458.841 387.4 479.613 388.259C500.385 389.118 534.082 399.422 551.161 406.292C568.241 413.162 607.015 434.201 630.557 452.664C654.099 471.127 679.948 489.16 695.643 498.177C711.337 507.193 759.805 524.368 773.654 528.662C787.502 532.955 815.659 538.108 841.971 535.102C868.282 532.097 900.133 521.792 929.675 506.764C959.218 491.736 1000.76 446.653 1019.23 414.88C1037.69 383.106 1045.54 335.876 1040.46 290.793C1035.38 245.709 970.758 171.429 961.987 155.542C953.217 139.656 938.125 99.8055 942.138 79.9735C949.524 43.4774 988.299 14.2804 999.377 5.26373C1015.53 -7.88562 1081.54 -59.5706 1081.54 -59.5706L1082 -60C1082 -60 1081.6 -60 1081.37 -60H0.00821486Z" fill="url(#paint4_linear)"/>
</g>
<defs>
<filter id="filter0_i" x="0.00390625" y="-64" width="1203" height="788.5" filterUnits="userSpaceOnUse" color-interpolation-filters="sRGB">
<feFlood flood-opacity="0" result="BackgroundImageFix"/>
<feBlend mode="normal" in="SourceGraphic" in2="BackgroundImageFix" result="shape"/>
<feColorMatrix in="SourceAlpha" type="matrix" values="0 0 0 0 0 0 0 0 0 0 0 0 0 0 0 0 0 0 127 0" result="hardAlpha"/>
<feOffset dy="-4"/>
<feGaussianBlur stdDeviation="2"/>
<feComposite in2="hardAlpha" operator="arithmetic" k2="-1" k3="1"/>
<feColorMatrix type="matrix" values="0 0 0 0 0.855204 0 0 0 0 0.284796 0 0 0 0 0.504184 0 0 0 0.5 0"/>
<feBlend mode="normal" in2="shape" result="effect1_innerShadow"/>
</filter>
<filter id="filter1_i" x="0.00390625" y="-64" width="631.996" height="788.5" filterUnits="userSpaceOnUse" color-interpolation-filters="sRGB">
<feFlood flood-opacity="0" result="BackgroundImageFix"/>
<feBlend mode="normal" in="SourceGraphic" in2="BackgroundImageFix" result="shape"/>
<feColorMatrix in="SourceAlpha" type="matrix" values="0 0 0 0 0 0 0 0 0 0 0 0 0 0 0 0 0 0 127 0" result="hardAlpha"/>
<feOffset dy="-4"/>
<feGaussianBlur stdDeviation="2"/>
<feComposite in2="hardAlpha" operator="arithmetic" k2="-1" k3="1"/>
<feColorMatrix type="matrix" values="0 0 0 0 0.855204 0 0 0 0 0.284796 0 0 0 0 0.504184 0 0 0 0.5 0"/>
<feBlend mode="normal" in2="shape" result="effect1_innerShadow"/>
</filter>
<filter id="filter2_i" x="0.00390625" y="-64" width="1172.5" height="757.868" filterUnits="userSpaceOnUse" color-interpolation-filters="sRGB">
<feFlood flood-opacity="0" result="BackgroundImageFix"/>
<feBlend mode="normal" in="SourceGraphic" in2="BackgroundImageFix" result="shape"/>
<feColorMatrix in="SourceAlpha" type="matrix" values="0 0 0 0 0 0 0 0 0 0 0 0 0 0 0 0 0 0 127 0" result="hardAlpha"/>
<feOffset dy="-4"/>
<feGaussianBlur stdDeviation="2"/>
<feComposite in2="hardAlpha" operator="arithmetic" k2="-1" k3="1"/>
<feColorMatrix type="matrix" values="0 0 0 0 0.855204 0 0 0 0 0.284796 0 0 0 0 0.504184 0 0 0 0.5 0"/>
<feBlend mode="normal" in2="shape" result="effect1_innerShadow"/>
</filter>
<filter id="filter3_d" x="-4" y="-60" width="1180" height="702.045" filterUnits="userSpaceOnUse" color-interpolation-filters="sRGB">
<feFlood flood-opacity="0" result="BackgroundImageFix"/>
<feColorMatrix in="SourceAlpha" type="matrix" values="0 0 0 0 0 0 0 0 0 0 0 0 0 0 0 0 0 0 127 0"/>
<feOffset dy="4"/>
<feGaussianBlur stdDeviation="2"/>
<feColorMatrix type="matrix" values="0 0 0 0 0.888878 0 0 0 0 0.451123 0 0 0 0 0.61949 0 0 0 0.75 0"/>
<feBlend mode="normal" in2="BackgroundImageFix" result="effect1_dropShadow"/>
<feBlend mode="normal" in="SourceGraphic" in2="effect1_dropShadow" result="shape"/>
</filter>
<filter id="filter4_d" x="-3.99609" y="-60" width="1090" height="604" filterUnits="userSpaceOnUse" color-interpolation-filters="sRGB">
<feFlood flood-opacity="0" result="BackgroundImageFix"/>
<feColorMatrix in="SourceAlpha" type="matrix" values="0 0 0 0 0 0 0 0 0 0 0 0 0 0 0 0 0 0 127 0"/>
<feOffset dy="4"/>
<feGaussianBlur stdDeviation="2"/>
<feColorMatrix type="matrix" values="0 0 0 0 0.855204 0 0 0 0 0.284796 0 0 0 0 0.504184 0 0 0 0.75 0"/>
<feBlend mode="normal" in2="BackgroundImageFix" result="effect1_dropShadow"/>
<feBlend mode="normal" in="SourceGraphic" in2="effect1_dropShadow" result="shape"/>
</filter>
<radialGradient id="paint0_radial" cx="0" cy="0" r="1" gradientUnits="userSpaceOnUse" gradientTransform="translate(0.00390625 -60) rotate(31.5972) scale(1264.45 1987.02)">
<stop offset="0.776042" stop-color="#FFBBD3"/>
<stop offset="0.875" stop-color="#FB92BA"/>
<stop offset="1" stop-color="#D2437A"/>
</radialGradient>
<radialGradient id="paint1_radial" cx="0" cy="0" r="1" gradientUnits="userSpaceOnUse" gradientTransform="translate(249.5 -60) rotate(101.73) scale(801.744 1394.2)">
<stop offset="0.863298" stop-color="#FFBBD3"/>
<stop offset="1" stop-color="#D2437A"/>
</radialGradient>
<radialGradient id="paint2_radial" cx="0" cy="0" r="1" gradientUnits="userSpaceOnUse" gradientTransform="translate(0.00390625 -60) rotate(90) scale(753.868 1172.5)">
<stop stop-color="#D2437A"/>
<stop offset="0.427083" stop-color="#FB92BA"/>
<stop offset="1" stop-color="#FFBBD3"/>
</radialGradient>
<radialGradient id="paint3_radial" cx="0" cy="0" r="1" gradientUnits="userSpaceOnUse" gradientTransform="translate(0.00391197 -60) rotate(90) scale(694.045 1172)">
<stop stop-color="#FFBBD3"/>
<stop offset="0.708333" stop-color="#FB92BA"/>
<stop offset="1" stop-color="#D2437A"/>
</radialGradient>
<linearGradient id="paint4_linear" x1="541.004" y1="-60" x2="541.004" y2="709.5" gradientUnits="userSpaceOnUse">
<stop stop-color="#D2437A"/>
<stop offset="1" stop-color="#FFBBD3"/>
</linearGradient>
</defs>
</svg>
